<svg data-bbox="26.5 20 146.9 160.2" viewBox="0 0 200 200" height="200" width="200" xmlns="http://www.w3.org/2000/svg" data-type="color">
    <g>
        <path d="M101.3 61.2L136 43.3l37.4 25.9-37.6 15.3c.1-.1-34.5-23.3-34.5-23.3z" fill="#7DD3FC" data-color="1"/>
        <path d="M64.1 35.3L101.6 20l34.6 23.3-37.5 15.3-34.6-23.3z" fill="#7DD3FC" data-color="1"/>
        <path d="M64 35.3v40.6l34.6 23.3V58.6c.1 0-34.6-23.3-34.6-23.3z" fill="#0EA5E9" data-color="2"/>
        <path d="M63.8 116.1l-2.6 38.5L98.4 180v-40.6l-34.6-23.3z" fill="#0EA5E9" data-color="2"/>
        <path d="M26.5 91.2l37.6-15.3 34.6 23.3-37.6 15.3c0-.1-34.6-23.3-34.6-23.3z" fill="#7DD3FC" data-color="1"/>
        <path d="M26.5 91.2v40.6L61.1 155v-40.6c0 .1-34.6-23.2-34.6-23.2z" fill="#0EA5E9" data-color="2"/>
        <path d="M173.2 69l-37 15v-.2h-.1l.1-40.5-37.5 15.3v40.7l-37.5 15.3v40.6L98.5 140v40.2l37.5-15.3.1-39.9 37.2-15.2-.1-40.8z" fill="#0284C7" data-color="3"/>
    </g>
</svg>